<?xml version="1.0" encoding="UTF-8" standalone="no"?>
<!DOCTYPE svg PUBLIC "-//W3C//DTD SVG 1.1//EN" "http://www.w3.org/Graphics/SVG/1.1/DTD/svg11.dtd">
<svg version="1.1" xmlns="http://www.w3.org/2000/svg" xmlns:xlink="http://www.w3.org/1999/xlink" preserveAspectRatio="xMidYMid meet" viewBox="0 0 640 640" width="640" height="640"><defs><path d="M414.15 380.06C408.92 377.06 405.33 371.92 404.3 365.98C403.27 360.04 404.93 354 408.84 349.41C413.04 344.48 446.68 305.06 450.88 300.13C477.53 269 492.2 229.26 492.2 188.22C492.2 186.62 492.2 173.79 492.2 172.18C492.2 124.76 472.34 78.97 437.74 46.53C402.65 13.65 356.76 -2.74 308.57 0.38C218.42 6.22 147.8 84.1 147.8 177.69C147.8 178.75 147.8 187.18 147.8 188.24C147.8 229.27 162.47 269.02 189.12 300.14C193.32 305.07 226.96 344.51 231.16 349.44C235.07 354.02 236.73 360.06 235.7 366.01C234.68 371.94 231.09 377.07 225.86 380.09C215.56 386.01 133.1 433.4 122.79 439.32C68.98 469.88 35.56 527.29 35.56 589.11C35.56 592.32 35.56 608.34 35.56 637.18L59.26 637.18C59.26 608.34 59.26 592.32 59.26 589.11C59.26 535.78 88.09 486.29 134.56 459.88C144.87 453.95 227.36 406.54 237.67 400.61C249.03 394.08 256.82 382.93 259.06 370.02C261.3 357.11 257.71 343.99 249.19 334.04C244.99 329.11 211.35 289.65 207.15 284.71C184.18 257.87 171.52 223.6 171.52 188.22C171.52 187.16 171.52 178.72 171.52 177.66C171.52 96.53 232.41 29.04 310.1 24.01C351.7 21.33 391.27 35.46 421.53 63.82C451.83 92.2 468.5 130.69 468.5 172.19C468.5 173.79 468.5 186.61 468.5 188.22C468.5 223.6 455.86 257.88 432.87 284.71C428.67 289.65 395.02 329.1 390.81 334.03C382.31 343.99 378.72 357.11 380.96 370.01C383.18 382.93 390.98 394.08 402.35 400.61C412.66 406.54 495.19 453.97 505.51 459.9C551.91 486.29 580.74 535.78 580.74 589.11C580.74 592.32 580.74 608.34 580.74 637.18L604.44 637.18C604.44 608.34 604.44 592.32 604.44 589.11C604.44 527.28 571.02 469.87 517.26 439.33C517.26 439.33 424.46 385.99 414.15 380.06Z" id="b51bLVHwu"></path></defs><g><g><g><use xlink:href="#b51bLVHwu" opacity="1" fill="#0c27b4" fill-opacity="1"></use><g><use xlink:href="#b51bLVHwu" opacity="1" fill-opacity="0" stroke="#531010" stroke-width="1" stroke-opacity="0"></use></g></g></g></g></svg>